<mxfile host="Electron" modified="2024-06-06T14:10:51.294Z" agent="Mozilla/5.0 (X11; Linux x86_64) AppleWebKit/537.36 (KHTML, like Gecko) draw.io/24.4.13 Chrome/124.0.6367.207 Electron/30.0.6 Safari/537.36" etag="Dq9EHmFSyZUNp9PIH0id" version="24.4.13" type="device">
  <diagram name="Page-1" id="HDnC6sEU8wcp8YAuJ0Jl">
    <mxGraphModel dx="3443" dy="2194" grid="1" gridSize="10" guides="1" tooltips="1" connect="1" arrows="0" fold="1" page="1" pageScale="1" pageWidth="850" pageHeight="1100" math="0" shadow="0">
      <root>
        <mxCell id="0" />
        <mxCell id="1" parent="0" />
        <mxCell id="QLIatf9QMXNeSE1yPhSc-7" style="edgeStyle=orthogonalEdgeStyle;rounded=0;orthogonalLoop=1;jettySize=auto;html=1;exitX=0;exitY=0.5;exitDx=0;exitDy=0;exitPerimeter=0;" parent="1" source="QLIatf9QMXNeSE1yPhSc-9" target="QLIatf9QMXNeSE1yPhSc-1" edge="1">
          <mxGeometry relative="1" as="geometry">
            <mxPoint x="218" y="160" as="sourcePoint" />
            <Array as="points">
              <mxPoint x="600" y="87" />
              <mxPoint x="600" y="230" />
            </Array>
          </mxGeometry>
        </mxCell>
        <mxCell id="QLIatf9QMXNeSE1yPhSc-62" value="Salva os arquivos de log&amp;nbsp;&lt;div&gt;da tabela customers no s3&lt;/div&gt;" style="edgeLabel;html=1;align=center;verticalAlign=middle;resizable=0;points=[];" parent="QLIatf9QMXNeSE1yPhSc-7" vertex="1" connectable="0">
          <mxGeometry x="0.004" y="-3" relative="1" as="geometry">
            <mxPoint as="offset" />
          </mxGeometry>
        </mxCell>
        <mxCell id="QLIatf9QMXNeSE1yPhSc-10" style="edgeStyle=orthogonalEdgeStyle;rounded=0;orthogonalLoop=1;jettySize=auto;html=1;" parent="1" source="QLIatf9QMXNeSE1yPhSc-9" target="QLIatf9QMXNeSE1yPhSc-5" edge="1">
          <mxGeometry relative="1" as="geometry">
            <Array as="points">
              <mxPoint x="470" y="87" />
              <mxPoint x="470" y="91" />
            </Array>
          </mxGeometry>
        </mxCell>
        <mxCell id="QLIatf9QMXNeSE1yPhSc-61" value="Lista dados de log da tabela de auditoria" style="edgeLabel;html=1;align=center;verticalAlign=middle;resizable=0;points=[];" parent="QLIatf9QMXNeSE1yPhSc-10" vertex="1" connectable="0">
          <mxGeometry x="-0.1141" relative="1" as="geometry">
            <mxPoint x="36" y="-11" as="offset" />
          </mxGeometry>
        </mxCell>
        <mxCell id="QLIatf9QMXNeSE1yPhSc-9" value="Spot Instance customer service" style="outlineConnect=0;dashed=0;verticalLabelPosition=bottom;verticalAlign=top;align=center;html=1;shape=mxgraph.aws3.spot_instance;fillColor=#F58534;gradientColor=none;" parent="1" vertex="1">
          <mxGeometry x="640" y="55.5" width="60" height="63" as="geometry" />
        </mxCell>
        <mxCell id="QLIatf9QMXNeSE1yPhSc-17" value="desenho de solução" style="swimlane;horizontal=0;whiteSpace=wrap;html=1;startSize=23;" parent="1" vertex="1">
          <mxGeometry x="-410" y="-130" width="1410" height="430" as="geometry" />
        </mxCell>
        <mxCell id="QLIatf9QMXNeSE1yPhSc-12" value="Internet Gatway" style="outlineConnect=0;dashed=0;verticalLabelPosition=bottom;verticalAlign=top;align=center;html=1;shape=mxgraph.aws3.internet_gateway;fillColor=#F58534;gradientColor=none;" parent="QLIatf9QMXNeSE1yPhSc-17" vertex="1">
          <mxGeometry x="60" y="110" width="69" height="72" as="geometry" />
        </mxCell>
        <mxCell id="QLIatf9QMXNeSE1yPhSc-11" value="Application Load Balance" style="outlineConnect=0;dashed=0;verticalLabelPosition=bottom;verticalAlign=top;align=center;html=1;shape=mxgraph.aws3.application_load_balancer;fillColor=#F58534;gradientColor=none;" parent="QLIatf9QMXNeSE1yPhSc-17" vertex="1">
          <mxGeometry x="186" y="110" width="69" height="72" as="geometry" />
        </mxCell>
        <mxCell id="QLIatf9QMXNeSE1yPhSc-14" style="edgeStyle=orthogonalEdgeStyle;rounded=0;orthogonalLoop=1;jettySize=auto;html=1;" parent="QLIatf9QMXNeSE1yPhSc-17" source="QLIatf9QMXNeSE1yPhSc-12" target="QLIatf9QMXNeSE1yPhSc-11" edge="1">
          <mxGeometry relative="1" as="geometry" />
        </mxCell>
        <mxCell id="QLIatf9QMXNeSE1yPhSc-13" value="Instancias customer service" style="outlineConnect=0;dashed=0;verticalLabelPosition=bottom;verticalAlign=top;align=center;html=1;shape=mxgraph.aws3.instances;fillColor=#F58534;gradientColor=none;" parent="QLIatf9QMXNeSE1yPhSc-17" vertex="1">
          <mxGeometry x="450" y="113.5" width="60" height="63" as="geometry" />
        </mxCell>
        <mxCell id="QLIatf9QMXNeSE1yPhSc-15" style="edgeStyle=orthogonalEdgeStyle;rounded=0;orthogonalLoop=1;jettySize=auto;html=1;entryX=0;entryY=0.5;entryDx=0;entryDy=0;entryPerimeter=0;" parent="QLIatf9QMXNeSE1yPhSc-17" source="QLIatf9QMXNeSE1yPhSc-11" target="QLIatf9QMXNeSE1yPhSc-13" edge="1">
          <mxGeometry relative="1" as="geometry" />
        </mxCell>
        <mxCell id="QLIatf9QMXNeSE1yPhSc-5" value="DB" style="outlineConnect=0;dashed=0;verticalLabelPosition=bottom;verticalAlign=top;align=center;html=1;shape=mxgraph.aws3.db_on_instance;fillColor=#F58534;gradientColor=none;" parent="QLIatf9QMXNeSE1yPhSc-17" vertex="1">
          <mxGeometry x="680" y="49" width="60" height="64.5" as="geometry" />
        </mxCell>
        <mxCell id="QLIatf9QMXNeSE1yPhSc-6" style="edgeStyle=orthogonalEdgeStyle;rounded=0;orthogonalLoop=1;jettySize=auto;html=1;" parent="QLIatf9QMXNeSE1yPhSc-17" source="QLIatf9QMXNeSE1yPhSc-13" target="QLIatf9QMXNeSE1yPhSc-5" edge="1">
          <mxGeometry relative="1" as="geometry">
            <mxPoint x="616.75" y="141.5" as="sourcePoint" />
          </mxGeometry>
        </mxCell>
        <mxCell id="QLIatf9QMXNeSE1yPhSc-60" value="Salva customer ou atualiza" style="edgeLabel;html=1;align=center;verticalAlign=middle;resizable=0;points=[];" parent="QLIatf9QMXNeSE1yPhSc-6" vertex="1" connectable="0">
          <mxGeometry x="0.424" y="-3" relative="1" as="geometry">
            <mxPoint x="-33" y="6" as="offset" />
          </mxGeometry>
        </mxCell>
        <mxCell id="88xh-g33DBN2G5tYx8tH-1" value="" style="outlineConnect=0;dashed=0;verticalLabelPosition=bottom;verticalAlign=top;align=center;html=1;shape=mxgraph.aws3.sqs;fillColor=#D9A741;gradientColor=none;" vertex="1" parent="QLIatf9QMXNeSE1yPhSc-17">
          <mxGeometry x="680" y="150" width="76.5" height="93" as="geometry" />
        </mxCell>
        <mxCell id="88xh-g33DBN2G5tYx8tH-2" style="edgeStyle=orthogonalEdgeStyle;rounded=0;orthogonalLoop=1;jettySize=auto;html=1;entryX=0;entryY=0.5;entryDx=0;entryDy=0;entryPerimeter=0;" edge="1" parent="QLIatf9QMXNeSE1yPhSc-17" source="QLIatf9QMXNeSE1yPhSc-13" target="88xh-g33DBN2G5tYx8tH-1">
          <mxGeometry relative="1" as="geometry">
            <mxPoint x="520" y="295" as="sourcePoint" />
            <mxPoint x="690" y="231" as="targetPoint" />
            <Array as="points">
              <mxPoint x="590" y="160" />
              <mxPoint x="590" y="197" />
            </Array>
          </mxGeometry>
        </mxCell>
        <mxCell id="88xh-g33DBN2G5tYx8tH-3" value="Publica uma mensagem&amp;nbsp;&lt;div&gt;com a auteração do customer&lt;/div&gt;" style="edgeLabel;html=1;align=center;verticalAlign=middle;resizable=0;points=[];" vertex="1" connectable="0" parent="88xh-g33DBN2G5tYx8tH-2">
          <mxGeometry x="0.424" y="-3" relative="1" as="geometry">
            <mxPoint x="-21" y="21" as="offset" />
          </mxGeometry>
        </mxCell>
        <mxCell id="88xh-g33DBN2G5tYx8tH-4" value="" style="endArrow=classic;html=1;rounded=0;" edge="1" parent="QLIatf9QMXNeSE1yPhSc-17" source="88xh-g33DBN2G5tYx8tH-1" target="QLIatf9QMXNeSE1yPhSc-13">
          <mxGeometry width="50" height="50" relative="1" as="geometry">
            <mxPoint x="600" y="330" as="sourcePoint" />
            <mxPoint x="650" y="280" as="targetPoint" />
            <Array as="points">
              <mxPoint x="718" y="320" />
              <mxPoint x="480" y="320" />
            </Array>
          </mxGeometry>
        </mxCell>
        <mxCell id="88xh-g33DBN2G5tYx8tH-5" value="Esculta a fila de auditoria de customer" style="edgeLabel;html=1;align=center;verticalAlign=middle;resizable=0;points=[];" vertex="1" connectable="0" parent="88xh-g33DBN2G5tYx8tH-4">
          <mxGeometry x="-0.1232" relative="1" as="geometry">
            <mxPoint as="offset" />
          </mxGeometry>
        </mxCell>
        <mxCell id="QLIatf9QMXNeSE1yPhSc-1" value="S3" style="sketch=0;points=[[0,0,0],[0.25,0,0],[0.5,0,0],[0.75,0,0],[1,0,0],[0,1,0],[0.25,1,0],[0.5,1,0],[0.75,1,0],[1,1,0],[0,0.25,0],[0,0.5,0],[0,0.75,0],[1,0.25,0],[1,0.5,0],[1,0.75,0]];outlineConnect=0;fontColor=#232F3E;fillColor=#7AA116;strokeColor=#ffffff;dashed=0;verticalLabelPosition=bottom;verticalAlign=top;align=center;html=1;fontSize=12;fontStyle=0;aspect=fixed;shape=mxgraph.aws4.resourceIcon;resIcon=mxgraph.aws4.glacier;" parent="QLIatf9QMXNeSE1yPhSc-17" vertex="1">
          <mxGeometry x="835" y="320" width="78" height="78" as="geometry" />
        </mxCell>
        <mxCell id="88xh-g33DBN2G5tYx8tH-6" value="" style="endArrow=classic;html=1;rounded=0;" edge="1" parent="QLIatf9QMXNeSE1yPhSc-17" source="QLIatf9QMXNeSE1yPhSc-13" target="QLIatf9QMXNeSE1yPhSc-1">
          <mxGeometry width="50" height="50" relative="1" as="geometry">
            <mxPoint x="600" y="330" as="sourcePoint" />
            <mxPoint x="650" y="280" as="targetPoint" />
            <Array as="points">
              <mxPoint x="480" y="360" />
              <mxPoint x="660" y="360" />
            </Array>
          </mxGeometry>
        </mxCell>
        <mxCell id="88xh-g33DBN2G5tYx8tH-7" value="Pubilca arquivo com bkp de customer" style="edgeLabel;html=1;align=center;verticalAlign=middle;resizable=0;points=[];" vertex="1" connectable="0" parent="88xh-g33DBN2G5tYx8tH-6">
          <mxGeometry x="0.1495" y="-4" relative="1" as="geometry">
            <mxPoint as="offset" />
          </mxGeometry>
        </mxCell>
        <mxCell id="QLIatf9QMXNeSE1yPhSc-25" value="Cliente Logado" style="shape=umlActor;verticalLabelPosition=bottom;verticalAlign=top;html=1;" parent="1" vertex="1">
          <mxGeometry x="-370" y="410" width="30" height="60" as="geometry" />
        </mxCell>
        <mxCell id="QLIatf9QMXNeSE1yPhSc-30" value="" style="html=1;points=[[0,0,0,0,5],[0,1,0,0,-5],[1,0,0,0,5],[1,1,0,0,-5]];perimeter=orthogonalPerimeter;outlineConnect=0;targetShapes=umlLifeline;portConstraint=eastwest;newEdgeStyle={&quot;curved&quot;:0,&quot;rounded&quot;:0};" parent="1" vertex="1">
          <mxGeometry x="-360" y="500" width="10" height="320" as="geometry" />
        </mxCell>
        <mxCell id="QLIatf9QMXNeSE1yPhSc-32" value="Executa operações de cadastro atualização ou exclusão" style="html=1;verticalAlign=bottom;startArrow=oval;endArrow=block;startSize=8;curved=0;rounded=0;exitX=1;exitY=0;exitDx=0;exitDy=5;exitPerimeter=0;" parent="1" source="QLIatf9QMXNeSE1yPhSc-30" target="QLIatf9QMXNeSE1yPhSc-50" edge="1">
          <mxGeometry relative="1" as="geometry">
            <mxPoint x="90" y="615" as="sourcePoint" />
            <mxPoint x="160" y="505" as="targetPoint" />
          </mxGeometry>
        </mxCell>
        <mxCell id="QLIatf9QMXNeSE1yPhSc-36" value="JDBC enviado para o banco de dados" style="html=1;verticalAlign=bottom;endArrow=block;curved=0;rounded=0;" parent="1" edge="1" source="QLIatf9QMXNeSE1yPhSc-51">
          <mxGeometry width="80" relative="1" as="geometry">
            <mxPoint x="175" y="519.9999999999998" as="sourcePoint" />
            <mxPoint x="550" y="510" as="targetPoint" />
          </mxGeometry>
        </mxCell>
        <mxCell id="QLIatf9QMXNeSE1yPhSc-40" value="Devolve resposta para o cliente" style="html=1;verticalAlign=bottom;endArrow=open;dashed=1;endSize=8;curved=0;rounded=0;" parent="1" edge="1">
          <mxGeometry relative="1" as="geometry">
            <mxPoint x="155" y="600" as="sourcePoint" />
            <mxPoint x="-160" y="600" as="targetPoint" />
          </mxGeometry>
        </mxCell>
        <mxCell id="QLIatf9QMXNeSE1yPhSc-45" value="Banco de dados" style="shape=umlLifeline;perimeter=lifelinePerimeter;whiteSpace=wrap;html=1;container=1;dropTarget=0;collapsible=0;recursiveResize=0;outlineConnect=0;portConstraint=eastwest;newEdgeStyle={&quot;curved&quot;:0,&quot;rounded&quot;:0};" parent="1" vertex="1">
          <mxGeometry x="460" y="410" width="180" height="940" as="geometry" />
        </mxCell>
        <mxCell id="QLIatf9QMXNeSE1yPhSc-41" value="Lista mudanças de customers" style="html=1;verticalAlign=bottom;startArrow=oval;startFill=1;endArrow=block;startSize=8;curved=0;rounded=0;" parent="QLIatf9QMXNeSE1yPhSc-45" target="QLIatf9QMXNeSE1yPhSc-48" edge="1">
          <mxGeometry width="60" relative="1" as="geometry">
            <mxPoint x="-290" y="769.9999999999998" as="sourcePoint" />
            <mxPoint x="43" y="769.9999999999998" as="targetPoint" />
          </mxGeometry>
        </mxCell>
        <mxCell id="QLIatf9QMXNeSE1yPhSc-42" value="recebe lista de customers que ainda não que não tiveram&lt;div&gt;seus dados enviados para o S3&lt;/div&gt;" style="html=1;verticalAlign=bottom;endArrow=open;dashed=1;endSize=8;curved=0;rounded=0;" parent="QLIatf9QMXNeSE1yPhSc-45" target="QLIatf9QMXNeSE1yPhSc-52" edge="1">
          <mxGeometry relative="1" as="geometry">
            <mxPoint x="49.5" y="840" as="sourcePoint" />
            <mxPoint x="-290" y="840" as="targetPoint" />
            <Array as="points">
              <mxPoint x="-130" y="840" />
            </Array>
          </mxGeometry>
        </mxCell>
        <mxCell id="QLIatf9QMXNeSE1yPhSc-48" value="" style="html=1;points=[[0,0,0,0,5],[0,1,0,0,-5],[1,0,0,0,5],[1,1,0,0,-5]];perimeter=orthogonalPerimeter;outlineConnect=0;targetShapes=umlLifeline;portConstraint=eastwest;newEdgeStyle={&quot;curved&quot;:0,&quot;rounded&quot;:0};" parent="QLIatf9QMXNeSE1yPhSc-45" vertex="1">
          <mxGeometry x="45" y="770" width="10" height="80" as="geometry" />
        </mxCell>
        <mxCell id="QLIatf9QMXNeSE1yPhSc-52" value="" style="html=1;points=[[0,0,0,0,5],[0,1,0,0,-5],[1,0,0,0,5],[1,1,0,0,-5]];perimeter=orthogonalPerimeter;outlineConnect=0;targetShapes=umlLifeline;portConstraint=eastwest;newEdgeStyle={&quot;curved&quot;:0,&quot;rounded&quot;:0};" parent="QLIatf9QMXNeSE1yPhSc-45" vertex="1">
          <mxGeometry x="-305" y="760" width="10" height="155" as="geometry" />
        </mxCell>
        <mxCell id="QLIatf9QMXNeSE1yPhSc-54" value="" style="html=1;points=[[0,0,0,0,5],[0,1,0,0,-5],[1,0,0,0,5],[1,1,0,0,-5]];perimeter=orthogonalPerimeter;outlineConnect=0;targetShapes=umlLifeline;portConstraint=eastwest;newEdgeStyle={&quot;curved&quot;:0,&quot;rounded&quot;:0};" parent="QLIatf9QMXNeSE1yPhSc-45" vertex="1">
          <mxGeometry x="-615" y="760" width="10" height="155" as="geometry" />
        </mxCell>
        <mxCell id="QLIatf9QMXNeSE1yPhSc-55" value="Solicita bkp em arquivo" style="html=1;verticalAlign=bottom;startArrow=oval;startFill=1;endArrow=block;startSize=8;curved=0;rounded=0;" parent="QLIatf9QMXNeSE1yPhSc-45" source="QLIatf9QMXNeSE1yPhSc-54" edge="1">
          <mxGeometry width="60" relative="1" as="geometry">
            <mxPoint x="-330" y="770" as="sourcePoint" />
            <mxPoint x="-300" y="770" as="targetPoint" />
          </mxGeometry>
        </mxCell>
        <mxCell id="QLIatf9QMXNeSE1yPhSc-56" value="recebe resposta de sucesso ou erro" style="html=1;verticalAlign=bottom;endArrow=open;dashed=1;endSize=8;curved=0;rounded=0;" parent="QLIatf9QMXNeSE1yPhSc-45" edge="1">
          <mxGeometry relative="1" as="geometry">
            <mxPoint x="-305.0000000000002" y="860" as="sourcePoint" />
            <mxPoint x="-605" y="860" as="targetPoint" />
          </mxGeometry>
        </mxCell>
        <mxCell id="QLIatf9QMXNeSE1yPhSc-59" value="" style="html=1;points=[[0,0,0,0,5],[0,1,0,0,-5],[1,0,0,0,5],[1,1,0,0,-5]];perimeter=orthogonalPerimeter;outlineConnect=0;targetShapes=umlLifeline;portConstraint=eastwest;newEdgeStyle={&quot;curved&quot;:0,&quot;rounded&quot;:0};" parent="QLIatf9QMXNeSE1yPhSc-45" vertex="1">
          <mxGeometry x="285" y="770" width="10" height="80" as="geometry" />
        </mxCell>
        <mxCell id="QLIatf9QMXNeSE1yPhSc-58" value="Envia arquivo pronto para o s3" style="html=1;verticalAlign=bottom;startArrow=circle;startFill=1;endArrow=open;startSize=6;endSize=8;curved=0;rounded=0;" parent="QLIatf9QMXNeSE1yPhSc-45" source="QLIatf9QMXNeSE1yPhSc-48" edge="1">
          <mxGeometry width="80" relative="1" as="geometry">
            <mxPoint x="60" y="810" as="sourcePoint" />
            <mxPoint x="290" y="810" as="targetPoint" />
          </mxGeometry>
        </mxCell>
        <mxCell id="QLIatf9QMXNeSE1yPhSc-46" value="" style="html=1;points=[[0,0,0,0,5],[0,1,0,0,-5],[1,0,0,0,5],[1,1,0,0,-5]];perimeter=orthogonalPerimeter;outlineConnect=0;targetShapes=umlLifeline;portConstraint=eastwest;newEdgeStyle={&quot;curved&quot;:0,&quot;rounded&quot;:0};" parent="QLIatf9QMXNeSE1yPhSc-45" vertex="1">
          <mxGeometry x="85" y="100" width="10" height="80" as="geometry" />
        </mxCell>
        <mxCell id="88xh-g33DBN2G5tYx8tH-10" value="" style="html=1;points=[[0,0,0,0,5],[0,1,0,0,-5],[1,0,0,0,5],[1,1,0,0,-5]];perimeter=orthogonalPerimeter;outlineConnect=0;targetShapes=umlLifeline;portConstraint=eastwest;newEdgeStyle={&quot;curved&quot;:0,&quot;rounded&quot;:0};" vertex="1" parent="QLIatf9QMXNeSE1yPhSc-45">
          <mxGeometry x="85" y="260" width="10" height="80" as="geometry" />
        </mxCell>
        <mxCell id="QLIatf9QMXNeSE1yPhSc-50" value="customer service" style="shape=umlLifeline;perimeter=lifelinePerimeter;whiteSpace=wrap;html=1;container=1;dropTarget=0;collapsible=0;recursiveResize=0;outlineConnect=0;portConstraint=eastwest;newEdgeStyle={&quot;curved&quot;:0,&quot;rounded&quot;:0};" parent="1" vertex="1">
          <mxGeometry x="110" y="415" width="100" height="935" as="geometry" />
        </mxCell>
        <mxCell id="QLIatf9QMXNeSE1yPhSc-51" value="" style="html=1;points=[[0,0,0,0,5],[0,1,0,0,-5],[1,0,0,0,5],[1,1,0,0,-5]];perimeter=orthogonalPerimeter;outlineConnect=0;targetShapes=umlLifeline;portConstraint=eastwest;newEdgeStyle={&quot;curved&quot;:0,&quot;rounded&quot;:0};" parent="QLIatf9QMXNeSE1yPhSc-50" vertex="1">
          <mxGeometry x="45" y="75" width="10" height="115" as="geometry" />
        </mxCell>
        <mxCell id="QLIatf9QMXNeSE1yPhSc-53" value="Job" style="shape=umlLifeline;whiteSpace=wrap;html=1;container=1;dropTarget=0;collapsible=0;recursiveResize=0;outlineConnect=0;portConstraint=eastwest;newEdgeStyle={&quot;curved&quot;:0,&quot;rounded&quot;:0};points=[[0,0,0,0,5],[0,1,0,0,-5],[1,0,0,0,5],[1,1,0,0,-5]];perimeter=rectanglePerimeter;targetShapes=umlLifeline;participant=label;" parent="1" vertex="1">
          <mxGeometry x="-200" y="415" width="100" height="925" as="geometry" />
        </mxCell>
        <mxCell id="QLIatf9QMXNeSE1yPhSc-57" value="S3" style="shape=umlLifeline;perimeter=lifelinePerimeter;whiteSpace=wrap;html=1;container=1;dropTarget=0;collapsible=0;recursiveResize=0;outlineConnect=0;portConstraint=eastwest;newEdgeStyle={&quot;curved&quot;:0,&quot;rounded&quot;:0};" parent="1" vertex="1">
          <mxGeometry x="700" y="410" width="100" height="950" as="geometry" />
        </mxCell>
        <mxCell id="QLIatf9QMXNeSE1yPhSc-63" value="Sequencia" style="swimlane;horizontal=0;whiteSpace=wrap;html=1;" parent="1" vertex="1">
          <mxGeometry x="-410" y="300" width="1410" height="1100" as="geometry" />
        </mxCell>
        <mxCell id="88xh-g33DBN2G5tYx8tH-8" value="" style="html=1;points=[[0,0,0,0,5],[0,1,0,0,-5],[1,0,0,0,5],[1,1,0,0,-5]];perimeter=orthogonalPerimeter;outlineConnect=0;targetShapes=umlLifeline;portConstraint=eastwest;newEdgeStyle={&quot;curved&quot;:0,&quot;rounded&quot;:0};" vertex="1" parent="QLIatf9QMXNeSE1yPhSc-63">
          <mxGeometry x="565" y="370" width="10" height="110" as="geometry" />
        </mxCell>
        <mxCell id="88xh-g33DBN2G5tYx8tH-14" value="" style="html=1;points=[[0,0,0,0,5],[0,1,0,0,-5],[1,0,0,0,5],[1,1,0,0,-5]];perimeter=orthogonalPerimeter;outlineConnect=0;targetShapes=umlLifeline;portConstraint=eastwest;newEdgeStyle={&quot;curved&quot;:0,&quot;rounded&quot;:0};" vertex="1" parent="QLIatf9QMXNeSE1yPhSc-63">
          <mxGeometry x="565" y="520" width="10" height="80" as="geometry" />
        </mxCell>
        <mxCell id="QLIatf9QMXNeSE1yPhSc-39" value="Devolve resposta para o servidor" style="html=1;verticalAlign=bottom;endArrow=open;dashed=1;endSize=8;curved=0;rounded=0;" parent="QLIatf9QMXNeSE1yPhSc-63" edge="1">
          <mxGeometry relative="1" as="geometry">
            <mxPoint x="955" y="280" as="sourcePoint" />
            <mxPoint x="575" y="280" as="targetPoint" />
          </mxGeometry>
        </mxCell>
        <mxCell id="QLIatf9QMXNeSE1yPhSc-47" value="" style="html=1;points=[[0,0,0,0,5],[0,1,0,0,-5],[1,0,0,0,5],[1,1,0,0,-5]];perimeter=orthogonalPerimeter;outlineConnect=0;targetShapes=umlLifeline;portConstraint=eastwest;newEdgeStyle={&quot;curved&quot;:0,&quot;rounded&quot;:0};" parent="QLIatf9QMXNeSE1yPhSc-63" vertex="1">
          <mxGeometry x="960" y="760" width="10" height="80" as="geometry" />
        </mxCell>
        <mxCell id="QLIatf9QMXNeSE1yPhSc-38" value="Trigger&amp;nbsp;customers log_ganges&lt;div&gt;Gera um log do estado da aplicação&lt;/div&gt;&lt;div&gt;grava o dado antes da atualização e depois&lt;/div&gt;" style="html=1;align=left;spacingLeft=2;endArrow=block;rounded=0;edgeStyle=orthogonalEdgeStyle;curved=0;rounded=0;exitX=1;exitY=0;exitDx=0;exitDy=5;exitPerimeter=0;" parent="QLIatf9QMXNeSE1yPhSc-63" source="QLIatf9QMXNeSE1yPhSc-47" target="QLIatf9QMXNeSE1yPhSc-47" edge="1">
          <mxGeometry x="0.0362" y="37" relative="1" as="geometry">
            <mxPoint x="921.5" y="770" as="sourcePoint" />
            <Array as="points">
              <mxPoint x="1010" y="765" />
              <mxPoint x="1010" y="830" />
            </Array>
            <mxPoint x="932.75" y="850" as="targetPoint" />
            <mxPoint as="offset" />
          </mxGeometry>
        </mxCell>
        <mxCell id="88xh-g33DBN2G5tYx8tH-16" value="" style="html=1;points=[[0,0,0,0,5],[0,1,0,0,-5],[1,0,0,0,5],[1,1,0,0,-5]];perimeter=orthogonalPerimeter;outlineConnect=0;targetShapes=umlLifeline;portConstraint=eastwest;newEdgeStyle={&quot;curved&quot;:0,&quot;rounded&quot;:0};" vertex="1" parent="QLIatf9QMXNeSE1yPhSc-63">
          <mxGeometry x="1156" y="550" width="10" height="80" as="geometry" />
        </mxCell>
        <mxCell id="88xh-g33DBN2G5tYx8tH-17" value="Envia arquivo com os dados que foram modificados para o s3" style="html=1;verticalAlign=bottom;endArrow=block;curved=0;rounded=0;" edge="1" parent="QLIatf9QMXNeSE1yPhSc-63" source="88xh-g33DBN2G5tYx8tH-14" target="88xh-g33DBN2G5tYx8tH-16">
          <mxGeometry width="80" relative="1" as="geometry">
            <mxPoint x="440" y="480" as="sourcePoint" />
            <mxPoint x="1140" y="590" as="targetPoint" />
          </mxGeometry>
        </mxCell>
        <mxCell id="88xh-g33DBN2G5tYx8tH-9" value="SQS" style="shape=umlLifeline;perimeter=lifelinePerimeter;whiteSpace=wrap;html=1;container=1;dropTarget=0;collapsible=0;recursiveResize=0;outlineConnect=0;portConstraint=eastwest;newEdgeStyle={&quot;curved&quot;:0,&quot;rounded&quot;:0};" vertex="1" parent="1">
          <mxGeometry x="890" y="410" width="100" height="950" as="geometry" />
        </mxCell>
        <mxCell id="88xh-g33DBN2G5tYx8tH-13" value="" style="html=1;points=[[0,0,0,0,5],[0,1,0,0,-5],[1,0,0,0,5],[1,1,0,0,-5]];perimeter=orthogonalPerimeter;outlineConnect=0;targetShapes=umlLifeline;portConstraint=eastwest;newEdgeStyle={&quot;curved&quot;:0,&quot;rounded&quot;:0};" vertex="1" parent="88xh-g33DBN2G5tYx8tH-9">
          <mxGeometry x="45" y="350" width="10" height="80" as="geometry" />
        </mxCell>
        <mxCell id="88xh-g33DBN2G5tYx8tH-11" value="Escuta evento de atualização da entidade customer" style="html=1;verticalAlign=bottom;startArrow=oval;startFill=1;endArrow=block;startSize=8;curved=0;rounded=0;entryX=1;entryY=0;entryDx=0;entryDy=5;entryPerimeter=0;" edge="1" parent="1" source="QLIatf9QMXNeSE1yPhSc-45" target="88xh-g33DBN2G5tYx8tH-8">
          <mxGeometry width="60" relative="1" as="geometry">
            <mxPoint x="340" y="770" as="sourcePoint" />
            <mxPoint x="400" y="770" as="targetPoint" />
          </mxGeometry>
        </mxCell>
        <mxCell id="88xh-g33DBN2G5tYx8tH-12" value="Envia mesnagem com as informações atualizadas para uma fila no sqs" style="html=1;verticalAlign=bottom;endArrow=block;curved=0;rounded=0;" edge="1" parent="1" source="88xh-g33DBN2G5tYx8tH-8" target="88xh-g33DBN2G5tYx8tH-13">
          <mxGeometry width="80" relative="1" as="geometry">
            <mxPoint x="160" y="768" as="sourcePoint" />
            <mxPoint x="410" y="770" as="targetPoint" />
          </mxGeometry>
        </mxCell>
        <mxCell id="88xh-g33DBN2G5tYx8tH-15" value="Procura mensagens no sqs a cada 10&amp;nbsp;&lt;div&gt;segundos para ver se teve alguma modificação no customer&lt;/div&gt;" style="html=1;verticalAlign=bottom;startArrow=oval;startFill=1;endArrow=block;startSize=8;curved=0;rounded=0;exitX=1;exitY=0;exitDx=0;exitDy=5;exitPerimeter=0;" edge="1" parent="1" source="88xh-g33DBN2G5tYx8tH-14" target="88xh-g33DBN2G5tYx8tH-9">
          <mxGeometry width="60" relative="1" as="geometry">
            <mxPoint x="180" y="930" as="sourcePoint" />
            <mxPoint x="240" y="930" as="targetPoint" />
          </mxGeometry>
        </mxCell>
      </root>
    </mxGraphModel>
  </diagram>
</mxfile>
